<?xml version="1.0" encoding="UTF-8"?><svg id="Layer_1" xmlns="http://www.w3.org/2000/svg" viewBox="0 0 1502.76 311.99"><defs><style>.cls-1{fill:#ef913e;}.cls-2{fill:#efe859;}.cls-3{fill:#72d377;}.cls-4{fill:#8e5bf3;}.cls-5{fill:#c77dea;}.cls-6{fill:#0c72cf;}.cls-7{fill:#2fc8cc;}.cls-8{fill:#5ca4f2;}</style></defs><path class="cls-6" d="M1444.99,133.94c-1.68,0-3.26-.31-4.74-.94-1.47-.63-2.77-1.5-3.88-2.62s-1.99-2.41-2.62-3.88c-.63-1.47-.94-3.05-.94-4.74s.31-3.26,.94-4.74c.63-1.47,1.5-2.77,2.62-3.88s2.41-1.99,3.88-2.62c1.47-.63,3.05-.94,4.74-.94s3.26,.31,4.74,.94c1.47,.63,2.77,1.5,3.88,2.62s1.99,2.41,2.62,3.88c.63,1.47,.95,3.05,.95,4.74s-.31,3.26-.95,4.74c-.63,1.47-1.5,2.77-2.62,3.88s-2.41,1.99-3.88,2.62c-1.47,.63-3.05,.94-4.74,.94Zm0-2.92c1.7,0,3.26-.42,4.66-1.25,1.4-.83,2.52-1.95,3.35-3.35,.83-1.4,1.25-2.95,1.25-4.66s-.42-3.26-1.25-4.66c-.83-1.4-1.95-2.52-3.35-3.35-1.4-.83-2.95-1.25-4.66-1.25s-3.26,.42-4.66,1.25c-1.4,.83-2.52,1.95-3.35,3.35-.83,1.4-1.25,2.95-1.25,4.66s.42,3.26,1.25,4.66c.83,1.4,1.95,2.52,3.35,3.35,1.4,.83,2.95,1.25,4.66,1.25Zm-4.26-3.77v-11.24h5.69c.46,0,.96,.13,1.49,.39,.54,.26,1,.66,1.38,1.19,.38,.53,.57,1.21,.57,2.02s-.2,1.52-.59,2.09c-.4,.57-.88,1.01-1.44,1.3-.56,.3-1.09,.44-1.59,.44h-4.11v-1.83h3.35c.34,0,.7-.17,1.09-.5,.39-.34,.59-.84,.59-1.51s-.2-1.16-.59-1.4c-.39-.24-.73-.37-1.03-.37h-2.34v9.41h-2.47Zm6.79-5.3l2.8,5.3h-2.71l-2.74-5.3h2.65Z"/><g><path class="cls-6" d="M375.51,66.6v205.37h-24.64V101.22l-104.44,126.45h-1.76l-104.44-126.45v170.75h-24.06V66.6h26.99l102.98,125.57,102.98-125.57h26.4Z"/><path class="cls-6" d="M518.13,257.59c31.69,0,50.75-7.92,69.24-25.23l15.84,16.72c-21.71,19.66-48.41,29.04-86.25,29.04-61.9,0-97.4-33.45-97.4-85.96s35.5-86.25,95.94-86.25c56.92,0,93.29,30.81,93.29,85.96,0,2.64-.29,4.11-.59,5.28h-164.29c2.35,40.49,31.69,60.44,74.23,60.44Zm-73.05-80.39h139.36c-7.04-35.5-34.33-50.75-68.65-50.75-36.97,0-64.54,17.02-70.71,50.75Z"/><path class="cls-6" d="M802.05,142.88V54.87h24.06v217.1h-24.06v-30.81c-14.67,22.3-41.95,36.67-77.16,36.67-53.4,0-86.84-34.03-86.84-85.67s33.45-85.96,86.84-85.96c35.21,0,62.49,14.38,77.16,36.67Zm0,74.52v-50.75c-16.43-28.46-41.37-39.02-71-39.02-44.01,0-68.65,23.18-68.65,64.54s24.64,64.25,68.65,64.25c29.63,0,54.57-10.56,71-39.02Z"/><path class="cls-6" d="M909.13,271.97h-24.06V112.08h24.06v159.89Z"/><path class="cls-6" d="M1001.24,95.06v17.02h73.35v20.54h-73.35v139.36h-24.06V132.61h-32.27v-20.54h32.27v-13.2c0-34.62,24.64-49.87,53.1-49.87,16.14,0,33.74,4.99,46.35,14.67l-11.44,15.26c-11.44-8.51-21.42-11.44-32.57-11.44-17.6,0-31.39,7.33-31.39,27.58Zm128.31-40.19v217.1h-24.06V54.87h24.06Z"/><path class="cls-6" d="M1213.46,271.97h-24.06V112.08h24.06v159.89Z"/><path class="cls-6" d="M1355.16,191.29l73.64,80.68h-30.22l-59.26-65.72-59.26,65.72h-29.63l73.93-80.39-73.35-79.51h30.22l58.68,65.13,58.68-65.13h29.63l-73.05,79.21Z"/></g><g><path class="cls-3" d="M896.21,68.88c-3.96-5.33-10.31-8.79-17.46-8.79-.61,0-1.22,.03-1.82,.08-.8-2.26-1.23-4.7-1.23-7.23,0-12.01,9.73-21.74,21.74-21.74s21.74,9.74,21.74,21.74c0,2.88-.56,5.63-1.58,8.15-1.41-.29-2.87-.44-4.36-.44-6.9,0-13.05,3.21-17.03,8.22Z"/><path class="cls-4" d="M876.92,60.17c2.51,7.12,8.62,12.54,16.15,14.08-1.02,2.52-1.58,5.27-1.58,8.15,0,4.86,1.59,9.34,4.28,12.96-3.98,5.01-10.13,8.22-17.03,8.22-12.01,0-21.74-9.74-21.74-21.74,0-11.39,8.77-20.74,19.92-21.67Z"/><path class="cls-8" d="M896.21,68.88c-1.29,1.62-2.35,3.42-3.13,5.37-7.53-1.53-13.64-6.95-16.15-14.08,.6-.05,1.21-.08,1.82-.08,7.15,0,13.5,3.45,17.46,8.79Z"/><path class="cls-1" d="M899.26,74.61c8.33-.69,15.33-6.08,18.34-13.51,9.92,2.02,17.38,10.79,17.38,21.31,0,12.01-9.73,21.74-21.74,21.74-7.15,0-13.5-3.45-17.46-8.79,2.95-3.71,4.71-8.41,4.71-13.52,0-2.54-.44-4.97-1.23-7.23Z"/><path class="cls-7" d="M899.26,74.61c-.73-2.07-1.76-4-3.05-5.73,3.98-5.01,10.13-8.22,17.03-8.22,1.49,0,2.95,.15,4.36,.44-3.01,7.43-10.01,12.82-18.34,13.51Z"/><path class="cls-5" d="M893.08,74.25c1.41,.29,2.87,.44,4.36,.44,.61,0,1.22-.03,1.82-.08,.8,2.26,1.23,4.7,1.23,7.23,0,5.11-1.76,9.81-4.71,13.52-2.69-3.62-4.28-8.1-4.28-12.96,0-2.88,.56-5.63,1.58-8.15Z"/><path class="cls-2" d="M899.26,74.61c-.6,.05-1.21,.08-1.82,.08-1.49,0-2.95-.15-4.36-.44,.79-1.94,1.85-3.75,3.13-5.37,1.29,1.73,2.32,3.66,3.05,5.73Z"/><circle class="cls-2" cx="896.32" cy="71.92" r="5.32"/></g><circle class="cls-6" cx="1201.82" cy="77.1" r="15.48"/></svg>